<?xml version="1.0" encoding="iso-8859-1"?>
<!-- Generator: Adobe Illustrator 19.0.0, SVG Export Plug-In . SVG Version: 6.00 Build 0)  -->
<svg xmlns="http://www.w3.org/2000/svg" xmlns:xlink="http://www.w3.org/1999/xlink" version="1.1" id="Layer_1" x="0px" y="0px" viewBox="0 0 512 512" style="enable-background:new 0 0 512 512;" xml:space="preserve" width="512px" height="512px">
<g>
	<g>
		<path d="M437.02,74.98C388.667,26.628,324.38,0,256,0S123.333,26.628,74.98,74.98C26.628,123.333,0,187.62,0,256    s26.628,132.667,74.98,181.02C123.333,485.372,187.62,512,256,512s132.667-26.628,181.02-74.98    C485.372,388.667,512,324.38,512,256S485.372,123.333,437.02,74.98z M256,491.602c-129.911,0-235.602-105.69-235.602-235.602    S126.089,20.398,256,20.398S491.602,126.089,491.602,256S385.911,491.602,256,491.602z" fill="#1869ab"/>
	</g>
</g>
<g>
	<g>
		<path d="M256,40.201C137.008,40.201,40.201,137.008,40.201,256S137.008,471.799,256,471.799S471.799,374.992,471.799,256    S374.992,40.201,256,40.201z M430.07,344.723l-29.412-16.982c-4.877-2.815-11.115-1.145-13.932,3.733    c-2.817,4.878-1.145,11.116,3.733,13.932l29.376,16.96c-14.935,22.924-34.544,42.533-57.467,57.467l-16.96-29.376    c-2.817-4.879-9.055-6.55-13.932-3.733c-4.878,2.816-6.55,9.054-3.733,13.932l16.982,29.412    c-23.785,12.172-50.376,19.611-78.524,21.065v-33.988c0-5.633-4.566-10.199-10.199-10.199c-5.633,0-10.199,4.566-10.199,10.199    v33.988c-28.148-1.454-54.738-8.893-78.524-21.065l16.982-29.412c2.817-4.878,1.145-11.116-3.733-13.932    c-4.877-2.815-11.116-1.145-13.932,3.733l-16.96,29.376c-22.925-14.935-42.533-34.543-57.467-57.467l29.376-16.96    c4.878-2.816,6.55-9.054,3.733-13.932c-2.816-4.878-9.055-6.55-13.932-3.733L81.93,344.723    c-12.172-23.785-19.611-50.376-21.065-78.524h33.988c5.633,0,10.199-4.566,10.199-10.199c0-5.633-4.566-10.199-10.199-10.199    H60.865c1.454-28.148,8.893-54.738,21.065-78.524l29.412,16.982c1.606,0.927,3.36,1.368,5.09,1.368    c3.525,0,6.953-1.829,8.842-5.101c2.817-4.878,1.145-11.116-3.733-13.932l-29.376-16.96    c14.935-22.925,34.543-42.533,57.467-57.467l16.96,29.376c1.889,3.272,5.317,5.101,8.842,5.101c1.73,0,3.484-0.441,5.09-1.368    c4.878-2.816,6.55-9.054,3.733-13.932L167.277,81.93c23.784-12.172,50.376-19.611,78.524-21.065v33.988    c0,5.633,4.566,10.199,10.199,10.199c5.633,0,10.199-4.566,10.199-10.199V60.865c28.148,1.454,54.738,8.893,78.524,21.065    l-16.982,29.412c-2.817,4.878-1.145,11.116,3.733,13.932c1.606,0.927,3.36,1.368,5.09,1.368c3.525,0,6.953-1.829,8.842-5.101    l16.96-29.376c22.925,14.935,42.533,34.543,57.467,57.467l-29.376,16.96c-4.878,2.816-6.55,9.054-3.733,13.932    c1.889,3.272,5.317,5.101,8.842,5.101c1.73,0,3.484-0.441,5.09-1.368l29.412-16.982c12.172,23.785,19.611,50.376,21.065,78.524    h-33.988c-5.633,0-10.199,4.566-10.199,10.199c0,5.633,4.566,10.199,10.199,10.199h33.988    C449.681,294.347,442.243,320.937,430.07,344.723z" fill="#1869ab"/>
	</g>
</g>
<g>
	<g>
		<path d="M266.199,227.604v-65.437c0-5.633-4.566-10.199-10.199-10.199c-5.633,0-10.199,4.566-10.199,10.199v65.437    c-11.633,4.191-19.974,15.336-19.974,28.396c0,7.418,2.696,14.215,7.153,19.474l-16.189,28.041    c-2.817,4.878-1.145,11.116,3.733,13.932c1.606,0.928,3.36,1.368,5.09,1.368c3.525,0,6.953-1.829,8.842-5.101l16.181-28.027    c1.742,0.314,3.532,0.487,5.363,0.487c16.638,0,30.173-13.535,30.173-30.173C286.173,242.941,277.832,231.796,266.199,227.604z     M256,265.775c-5.39,0-9.775-4.385-9.775-9.775c0-5.39,4.385-9.775,9.775-9.775c5.39,0,9.775,4.385,9.775,9.775    C265.775,261.39,261.39,265.775,256,265.775z" fill="#1869ab"/>
	</g>
</g>
<g>
	<g>
		<path d="M256,118.311c-5.633,0-10.199,4.566-10.199,10.199v4.08c0,5.633,4.566,10.199,10.199,10.199    c5.633,0,10.199-4.566,10.199-10.199v-4.08C266.199,122.877,261.633,118.311,256,118.311z" fill="#1869ab"/>
	</g>
</g>
<g>
</g>
<g>
</g>
<g>
</g>
<g>
</g>
<g>
</g>
<g>
</g>
<g>
</g>
<g>
</g>
<g>
</g>
<g>
</g>
<g>
</g>
<g>
</g>
<g>
</g>
<g>
</g>
<g>
</g>
</svg>
