<?xml version="1.0" encoding="iso-8859-1"?>
<!-- Generator: Adobe Illustrator 19.0.0, SVG Export Plug-In . SVG Version: 6.00 Build 0)  -->
<svg xmlns="http://www.w3.org/2000/svg" xmlns:xlink="http://www.w3.org/1999/xlink" version="1.1" id="Capa_1" x="0px" y="0px" viewBox="0 0 490 490" style="enable-background:new 0 0 490 490;" xml:space="preserve" width="512px" height="512px">
<g>
	<path d="M386.641,448.401c0-13.335-10.91-24.245-24.245-24.245h-10.208v-61.501H137.813v61.501h-10.209   c-13.335,0-24.245,10.91-24.245,24.245s10.91,24.245,24.245,24.245h234.792C375.73,472.646,386.641,461.736,386.641,448.401z    M168.438,393.28h153.125v30.876H168.438V393.28z" fill="#1869ab"/>
	<path d="M30.625,338.917h428.75c16.844,0,30.625-13.781,30.625-30.625V47.979c0-16.844-13.781-30.625-30.625-30.625H30.625   C13.781,17.354,0,31.135,0,47.979v260.313C0,325.135,13.781,338.917,30.625,338.917z M30.625,47.979h428.75v260.313H30.625V47.979z   " fill="#1869ab"/>
	<polygon points="101.341,214.824 118.343,214.824 118.343,265.382 129.244,265.382 129.244,214.824 146.426,214.824    146.426,205.702 101.341,205.702  " fill="#1869ab"/>
	<path d="M182.688,237.224v-0.269c5.578-2.034,10.797-7.267,10.797-14.969c0-5.039-1.854-9.211-5.129-11.948   c-3.993-3.365-9.84-4.785-18.423-4.785c-6.295,0-12.397,0.538-16.479,1.241v58.887h10.811v-24.524h5.488   c6.206,0.165,9.032,2.647,10.722,10.438c1.675,7.447,3.095,12.322,3.978,14.086h11.245c-1.241-2.303-2.826-9.211-4.696-16.643   C189.507,242.981,186.935,238.809,182.688,237.224z M170.726,232.888h-6.46v-18.872c1.062-0.254,3.275-0.523,6.729-0.523   c7.088,0,11.694,3.006,11.694,9.555C182.688,228.985,178.083,232.888,170.726,232.888z" fill="#1869ab"/>
	<path d="M219.19,205.702l-19.126,59.68h11.245l5.144-16.913H235.4l5.398,16.913h11.694l-19.395-59.68H219.19z M218.218,240.23   l4.606-14.699c1.062-3.544,1.959-7.701,2.841-11.155h0.18c0.882,3.454,1.854,7.522,3.006,11.155l4.695,14.699H218.218z" fill="#1869ab"/>
	<path d="M282.309,232.977c-2.393,7.253-4.516,14.52-6.116,21.608h-0.165c-1.6-7.267-3.544-14.266-5.847-21.787l-8.15-27.096   h-11.873l19.305,59.68h12.486l20.636-59.68h-11.604L282.309,232.977z" fill="#1869ab"/>
	<polygon points="319.993,238.899 342.483,238.899 342.483,230.046 319.993,230.046 319.993,214.644 343.814,214.644    343.814,205.702 309.091,205.702 309.091,265.382 345.145,265.382 345.145,256.44 319.993,256.44  " fill="#1869ab"/>
	<polygon points="365.631,205.702 354.73,205.702 354.73,265.382 390.155,265.382 390.155,256.26 365.631,256.26  " fill="#1869ab"/>
	<polygon points="312.905,101.326 290.145,80.839 242.309,133.984 222.899,114.575 201.246,136.227 243.475,178.456  " fill="#1869ab"/>
</g>
<g>
</g>
<g>
</g>
<g>
</g>
<g>
</g>
<g>
</g>
<g>
</g>
<g>
</g>
<g>
</g>
<g>
</g>
<g>
</g>
<g>
</g>
<g>
</g>
<g>
</g>
<g>
</g>
<g>
</g>
</svg>
